<?xml version="1.0" encoding="UTF-8"?>
<svg xmlns="http://www.w3.org/2000/svg" viewBox="0 0 16 16" width="16" height="16">
  <!-- 喜欢（未选）：空心爱心。
       用 fill-rule=evenodd：外轮廓 + 内轮廓，中间挖空，
       确保 GTK symbolic 渲染下也显示为「空心」（不依赖 stroke）。 -->
  <path fill="currentColor" fill-rule="evenodd"
        d="M8 13.5
           C 8 13.5, 1.5 9.5, 1.5 5.6
           C 1.5 3.5, 3.2 2, 5 2
           C 6.3 2, 7.4 2.8, 8 3.9
           C 8.6 2.8, 9.7 2, 11 2
           C 12.8 2, 14.5 3.5, 14.5 5.6
           C 14.5 9.5, 8 13.5, 8 13.5 Z
           M8 11.2
           C 8 11.2, 3.4 8.2, 3.4 5.6
           C 3.4 4.4, 4.4 3.5, 5.4 3.5
           C 6.4 3.5, 7.4 4.3, 8 5.5
           C 8.6 4.3, 9.6 3.5, 10.6 3.5
           C 11.6 3.5, 12.6 4.4, 12.6 5.6
           C 12.6 8.2, 8 11.2, 8 11.2 Z"/>
</svg>
